<svg xmlns="http://www.w3.org/2000/svg" width="97" height="97" viewBox="0 0 97 97" version="1.1"><title>design</title><desc>Created with Sketch.</desc><g stroke="none" stroke-width="1" fill="none" fill-rule="evenodd"><circle fill="#FF850C" cx="48.5" cy="48.5" r="48.5"/><g transform="translate(30.000000, 21.000000)" fill="#000000"><path d="M10.4 37.9L10.8 38.5C10.6 39.5 10.3 40.6 9.9 41.7 9.6 42.8 9.2 44 8.8 45.1 8.4 46.2 8 47.4 7.5 48.6 7.1 49.8 6.6 50.9 6.2 51.9L0.4 51.9C0.7 50.8 0.9 49.6 1.2 48.3 1.5 47.1 1.7 45.8 1.9 44.6 2.1 43.4 2.4 42.2 2.5 41 2.7 39.8 2.9 38.7 3 37.8L10.4 37.8 10.4 37.9ZM1.7 19.9C1.7 19.1 1.8 18.4 2.1 17.8 2.3 17.2 2.7 16.8 3.1 16.4 3.5 16 4 15.8 4.6 15.6 5.2 15.4 5.8 15.4 6.4 15.4 7 15.4 7.6 15.5 8.2 15.6 8.8 15.8 9.2 16 9.7 16.4 10.1 16.8 10.5 17.2 10.7 17.8 10.9 18.4 11.1 19.1 11.1 19.9 11.1 20.7 11 21.4 10.7 21.9 10.5 22.5 10.1 22.9 9.7 23.3 9.3 23.7 8.8 23.9 8.2 24.1 7.6 24.3 7.1 24.4 6.4 24.4 5.7 24.4 5.1 24.3 4.6 24.1 4 23.9 3.5 23.7 3.1 23.3 2.7 22.9 2.3 22.5 2.1 21.9 1.9 21.3 1.7 20.7 1.7 19.9L1.7 19.9ZM36.1 30.6C35 30.6 34 30.7 33.2 30.9 32.3 31.1 31.6 31.4 31 31.9 30.4 32.3 30 32.9 29.7 33.6 29.4 34.3 29.3 35.1 29.3 36.1L29.3 45.9C29.3 47.4 29.1 48.7 28.8 49.8 28.5 50.9 27.9 51.8 27 52.5 26.1 53.2 24.9 53.7 23.4 54 21.9 54.3 20 54.5 17.7 54.5L17.7 48.5C18.4 48.5 19 48.4 19.6 48.3 20.2 48.2 20.7 47.9 21.1 47.6 21.5 47.3 21.8 46.8 22 46.3 22.2 45.8 22.3 45 22.3 44.1L22.3 34.7C22.4 30.8 24.5 28.4 28.5 27.7L28.5 27.4C26.5 27 24.9 26.3 23.8 25.1 22.7 23.9 22.2 22.4 22.3 20.4L22.3 11C22.3 10.1 22.2 9.4 22 8.8 21.8 8.2 21.5 7.8 21.1 7.5 20.7 7.2 20.2 6.9 19.6 6.8 19 6.7 18.4 6.6 17.7 6.6L17.7 0.6C20 0.6 21.9 0.8 23.4 1.1 24.9 1.4 26.1 1.9 27 2.6 27.9 3.3 28.5 4.2 28.8 5.3 29.1 6.4 29.3 7.7 29.3 9.2L29.3 18.9C29.3 20.9 29.9 22.3 31 23.2 32.2 24 33.8 24.5 36 24.5L36 30.6 36.1 30.6Z"/></g></g></svg>
