<?xml version="1.0" encoding="UTF-8" standalone="no"?>
<svg width="97px" height="97px" viewBox="0 0 97 97" version="1.1" xmlns="http://www.w3.org/2000/svg" xmlns:xlink="http://www.w3.org/1999/xlink" xmlns:sketch="http://www.bohemiancoding.com/sketch/ns">
    <!-- Generator: Sketch 3.4.2 (15855) - http://www.bohemiancoding.com/sketch -->
    <title>friki</title>
    <desc>Created with Sketch.</desc>
    <defs></defs>
    <g id="Page-1" stroke="none" stroke-width="1" fill="none" fill-rule="evenodd" sketch:type="MSPage">
        <g id="Oval-1-Copy-2-+-82200-200" sketch:type="MSLayerGroup" fill="#FFD400">
            <circle id="Oval-1-Copy-2" sketch:type="MSShapeGroup" cx="48.5" cy="48.5" r="48.5"></circle>
        </g>
        <g id="1448511681_avatar_contact_starwars_user_default_yoda" sketch:type="MSLayerGroup" transform="translate(27.000000, 26.000000)">
            <g id="Group">
                <g id="avatar_contact_starwars_user_default_yoda" fill="#000000" sketch:type="MSShapeGroup">
                    <path d="M44.023302,12.920748 C41.207286,11.554968 36.865962,10.580766 33.962328,11.737038 C33.189474,10.478154 32.441304,9.199788 32.335938,8.391336 C31.693848,3.470856 25.54845,0 22.39461,0 C19.240872,0 13.095372,3.47055 12.453384,8.39103 C12.343326,9.23406 11.545992,10.62279 10.74519,11.952054 C7.858896,10.474074 3.185766,11.478672 0.212466,12.920748 C-0.108528,13.076502 -0.053346,13.550802 0.294372,13.630872 C1.629654,13.937892 3.99381,14.582226 4.812462,15.44637 C5.865612,16.558068 7.068702,18.402636 10.599942,19.027182 C11.434608,20.45712 12.296814,21.748542 12.362808,21.962028 C12.740412,23.18205 13.333542,24.26325 13.697274,25.181964 C13.900866,25.696146 15.133128,27.016944 15.74982,28.186884 C11.367492,30.16395 5.117136,34.767822 4.344486,36.181338 C3.692604,37.37382 3.35274,38.80539 3.147006,40.29357 C2.997882,41.371812 3.718002,42.376512 4.786962,42.581736 C9.671232,43.519524 15.595698,44.213328 22.330146,44.217816 C29.118348,44.222304 35.086674,43.520748 39.999708,42.580512 C41.06928,42.375798 41.790216,41.370894 41.64099,40.292142 C41.435154,38.804574 41.09529,37.373616 40.443714,36.181542 C39.673512,34.772514 33.202632,30.485862 28.962084,28.339884 C29.546136,27.134448 30.87948,25.718994 31.092048,25.18227 C31.455678,24.263658 32.048808,23.182458 32.426514,21.962334 C32.494548,21.742728 33.385926,20.382762 34.233648,18.90468 C37.307214,18.188232 38.432172,16.492788 39.42351,15.44637 C40.24206,14.582226 42.606216,13.937892 43.941498,13.630872 C44.289114,13.550904 44.344398,13.076502 44.023302,12.920748 L44.023302,12.920748 Z" id="Shape"></path>
                </g>
                <g id="Layer_1"></g>
            </g>
        </g>
    </g>
</svg>