<svg width="97" height="97" viewBox="0 0 97 97" xmlns="http://www.w3.org/2000/svg"><title>Friki</title><g fill="none" fill-rule="evenodd"><circle cx="48.5" cy="48.5" r="48.5" fill="#FF850C"/><path d="M71.023 38.92c-2.816-1.365-7.157-2.34-10.06-1.183-.774-1.26-1.522-2.537-1.627-3.346-.642-4.92-6.788-8.39-9.94-8.39-3.155 0-9.3 3.47-9.943 8.39-.11.844-.907 2.233-1.708 3.562-2.886-1.478-7.56-.473-10.533.97-.32.155-.265.63.082.71 1.336.306 3.7.95 4.518 1.814 1.054 1.112 2.257 2.957 5.788 3.58.835 1.43 1.697 2.723 1.763 2.936.377 1.22.97 2.3 1.334 3.22.204.514 1.436 1.835 2.053 3.005-4.383 1.977-10.633 6.58-11.406 7.994-.65 1.194-.99 2.625-1.197 4.114-.15 1.078.57 2.083 1.64 2.288 4.884.938 10.81 1.63 17.543 1.636 6.788.004 12.757-.697 17.67-1.637 1.07-.204 1.79-1.21 1.64-2.288-.205-1.487-.545-2.918-1.196-4.11-.77-1.41-7.24-5.696-11.482-7.842.584-1.206 1.917-2.62 2.13-3.158.364-.918.957-2 1.335-3.22.068-.22.96-1.58 1.807-3.057 3.073-.717 4.198-2.412 5.19-3.46.818-.863 3.182-1.507 4.517-1.814.35-.08.404-.553.083-.71z" fill="#000"/></g></svg>