<?xml version="1.0" encoding="UTF-8" standalone="no"?>
<svg width="97px" height="97px" viewBox="0 0 97 97" version="1.1" xmlns="http://www.w3.org/2000/svg" xmlns:xlink="http://www.w3.org/1999/xlink" xmlns:sketch="http://www.bohemiancoding.com/sketch/ns">
    <!-- Generator: Sketch 3.4.2 (15855) - http://www.bohemiancoding.com/sketch -->
    <title>js</title>
    <desc>Created with Sketch.</desc>
    <defs></defs>
    <g id="Page-1" stroke="none" stroke-width="1" fill="none" fill-rule="evenodd" sketch:type="MSPage">
        <circle id="Oval-1" fill="#FFD400" sketch:type="MSShapeGroup" cx="48.5" cy="48.5" r="48.5"></circle>
        <g id="Layer_1" sketch:type="MSLayerGroup" transform="translate(33.000000, 39.000000)" fill="#000000">
            <g id="Group" sketch:type="MSShapeGroup">
                <path d="M11.1592618,0.669550388 L19.6136161,0.669550388 L19.6136161,24.4544109 C19.6136161,35.1743721 14.4966496,38.9153488 6.32008465,38.9153488 C4.31783268,38.9153488 1.75929921,38.5803721 0.0904547244,38.0220775 L1.03606299,31.1546512 C2.2041437,31.5454574 3.70593307,31.8246047 5.37447638,31.8246047 C8.93423622,31.8246047 11.1592618,30.2053488 11.1592618,24.3987829 L11.1592618,0.669550388 L11.1592618,0.669550388 Z" id="Shape"></path>
                <path d="M26.9541024,29.5910233 C29.1789272,30.7635426 32.7387874,31.936062 36.3541654,31.936062 C40.2477343,31.936062 42.3057047,30.3170078 42.3057047,27.8044806 C42.3057047,25.5153721 40.5258248,24.1196357 36.0204567,22.5562093 C29.7907264,20.3228295 25.6748858,16.8612016 25.6748858,11.3338837 C25.6748858,4.91299225 31.0701437,0.0554263566 39.8583071,0.0554263566 C44.1413031,0.0554263566 47.2002992,0.893170543 49.4253248,1.95382946 L47.5340079,8.76542636 C46.087937,8.03974419 43.3623484,6.97878295 39.7472717,6.97878295 C36.0761752,6.97878295 34.2961949,8.7095969 34.2961949,10.608 C34.2961949,13.0088682 36.3541654,14.0695271 41.249061,15.968031 C47.8678169,18.4247287 50.9270138,21.8863566 50.9270138,27.2462868 C50.9270138,33.5554186 46.1435551,38.9154496 35.8536024,38.9154496 C31.5706063,38.9154496 27.3432283,37.7428295 25.2299409,36.5704109 L26.9541024,29.5910233 L26.9541024,29.5910233 Z" id="Shape"></path>
            </g>
        </g>
    </g>
</svg>