<svg width="97" height="97" viewBox="0 0 97 97" xmlns="http://www.w3.org/2000/svg"><title>js</title><g fill="none" fill-rule="evenodd"><circle fill="#FF850C" cx="48.5" cy="48.5" r="48.5"/><g fill="#000"><path d="M44.16 39.67h8.454v23.784c0 10.72-5.117 14.46-13.294 14.46-2.002 0-4.56-.334-6.23-.892l.946-6.867c1.168.39 2.67.67 4.338.67 3.56 0 5.785-1.62 5.785-7.426V39.67zM59.954 68.59c2.225 1.174 5.785 2.346 9.4 2.346 3.894 0 5.952-1.62 5.952-4.132 0-2.29-1.78-3.684-6.286-5.248-6.23-2.233-10.345-5.695-10.345-11.222 0-6.42 5.395-11.28 14.183-11.28 4.283 0 7.342.84 9.567 1.9l-1.89 6.81c-1.447-.724-4.173-1.785-7.788-1.785-3.67 0-5.45 1.73-5.45 3.628 0 2.4 2.057 3.462 6.952 5.36 6.618 2.457 9.677 5.918 9.677 11.278 0 6.31-4.783 11.67-15.073 11.67-4.283 0-8.51-1.173-10.624-2.346l1.724-6.98z"/></g></g></svg>