<svg width="97" height="97" viewBox="0 0 97 97" xmlns="http://www.w3.org/2000/svg"><title>qa</title><g fill="none" fill-rule="evenodd"><circle fill="#FF850C" cx="48.5" cy="48.5" r="48.5"/><path d="M40.255 56.45c.6-.81 1.08-1.815 1.44-3.015.36-1.2.54-2.655.54-4.365 0-1.41-.157-2.775-.472-4.095-.316-1.32-.818-2.497-1.508-3.532-.69-1.036-1.59-1.86-2.7-2.475-1.11-.616-2.46-.923-4.05-.923-1.59 0-2.94.307-4.05.922-1.11.616-2.01 1.44-2.7 2.476-.69 1.035-1.192 2.212-1.508 3.532-.315 1.32-.472 2.685-.472 4.095 0 1.35.157 2.662.473 3.938.315 1.275.817 2.422 1.507 3.442s1.59 1.837 2.7 2.453c1.11.615 2.46.922 4.05.922.75 0 1.32-.03 1.71-.09.39-.06.765-.18 1.125-.36l-3.015-2.745 3.285-3.51 3.645 3.33zm1.035 7.425c-2.13 1.23-4.725 1.845-7.785 1.845-2.46 0-4.672-.427-6.638-1.282-1.965-.856-3.622-2.033-4.972-3.533-1.35-1.5-2.385-3.262-3.105-5.288-.72-2.025-1.08-4.207-1.08-6.547 0-2.4.36-4.627 1.08-6.682.72-2.056 1.755-3.848 3.105-5.378 1.35-1.53 3.007-2.73 4.973-3.6 1.965-.87 4.177-1.305 6.637-1.305 2.49 0 4.71.435 6.66 1.305 1.95.87 3.6 2.07 4.95 3.6 1.35 1.53 2.385 3.322 3.105 5.378.72 2.055 1.08 4.282 1.08 6.682 0 2.34-.36 4.515-1.08 6.525-.72 2.01-1.755 3.78-3.105 5.31l4.005 3.645-3.285 3.42-4.545-4.095zM62.215 52.58L66.4 40.79h.09l4.05 11.79h-8.325zm.675-19.71L50.74 65h7.11l2.52-7.155h12.015L74.815 65h7.335L70.135 32.87H62.89z" fill="#000"/></g></svg>