<svg xmlns="http://www.w3.org/2000/svg" xmlns:xlink="http://www.w3.org/1999/xlink" width="192" height="192" viewBox="0 0 192 192" version="1.1">
  <g id="Page-1" stroke="none" stroke-width="1" fill="none" fill-rule="evenodd">
    <circle id="Oval-1" fill="#FF8300" cx="96" cy="96" r="96"/>
    <path d="M107.87 36.25C81.17 31.07 64.08 44.95 64.08 44.95 64.08 44.95 76.73 57.02 78.29 59.34 89.3 52.86 104.04 55.51 104.04 55.51 120 59.29 126.48 68.97 126.48 68.97L145.02 61.1C138.49 51.83 127.74 40.1 107.87 36.25L107.87 36.25ZM72.37 106.76C70.66 107.71 66.98 109.73 62.59 112.15 67.91 121.79 77.29 129.12 88.93 131.43 91.47 131.94 94 132.18 96.5 132.18L96.5 120.93C96.5 120.93 110.47 121.67 119.34 108.71 120.98 109.79 124.5 112.14 128.69 114.94 131.43 110.84 133.43 106.15 134.45 101.02 136 93.21 135.08 85.47 132.23 78.63L121.85 82.92C121.85 82.92 118.23 72.76 106.97 68.08 106.97 68.08 90.9 60.72 77.09 74.04 76.23 73.18 73.08 70.03 69.13 66.08 66.34 68.87 63.96 72.1 62.11 75.68L72.06 80.85C72.06 80.85 64.95 92.92 72.37 106.76L72.37 106.76ZM58.34 86.53L40.4 77.23C35.01 94.93 40.8 111.13 40.8 111.13 40.8 111.13 54.52 102.51 58.51 101.28 56.86 92.84 58.34 86.53 58.34 86.53L58.34 86.53ZM107.88 150.69C126.07 147.31 137.77 134.7 137.77 134.7 137.77 134.7 123.8 126.5 120.86 123.53 114.14 128.89 107.85 130.48 107.85 130.48L107.88 150.69ZM150.39 71.13C154.67 81.44 156.05 93.09 153.71 104.86 152.17 112.6 149.15 119.68 145.02 125.86 150.31 129.4 154.27 132.05 154.27 132.05 154.27 132.05 136.34 162.46 96.5 162.93L96.5 151.82C92.74 151.82 88.92 151.46 85.1 150.7 67.53 147.21 53.39 136.15 45.37 121.6 39.76 124.68 35.54 126.99 35.54 126.99 35.54 126.99 16.83 97.06 34.79 61.49L44.68 66.62C47.47 61.23 51.05 56.37 55.25 52.19 50.78 47.71 47.4 44.33 47.4 44.33 47.4 44.33 66.49 23.47 96.5 24.01 125.77 24.54 149.39 40.43 160.68 66.88L150.39 71.13Z" id="path186-copy" fill="#FFFFFF" transform="translate(93.837735, 93.462560) scale(1, -1) translate(-93.837735, -93.462560) "/>
  </g>
</svg>
